HIERARCHY
ROOT Hips
{
 OFFSET 0.000000 0.000000 0.000000
 CHANNELS 6 Xposition Yposition Zposition Yrotation Xrotation Zrotation
 JOINT Chest
 {
  OFFSET 0.000000 9.581000 -0.001100
  CHANNELS 3 Yrotation Xrotation Zrotation
  JOINT Chest2
  {
   OFFSET 0.000000 9.561100 0.002200
   CHANNELS 3 Yrotation Xrotation Zrotation
   JOINT Chest3
   {
    OFFSET 0.000000 9.521100 0.000000
    CHANNELS 3 Yrotation Xrotation Zrotation
    JOINT Chest4
    {
     OFFSET 0.000000 9.511400 0.000000
     CHANNELS 3 Yrotation Xrotation Zrotation
     JOINT Neck
     {
      OFFSET 0.000000 14.375100 0.000000
      CHANNELS 3 Yrotation Xrotation Zrotation
      JOINT Head
      {
       OFFSET 0.000000 8.901200 0.004600
       CHANNELS 3 Yrotation Xrotation Zrotation
       End Site
       {
        OFFSET 0.000000 16.962200 0.002400
       }
      }
     }
     JOINT RightCollar
     {
      OFFSET -2.920100 9.518800 0.000000
      CHANNELS 3 Yrotation Xrotation Zrotation
      JOINT RightShoulder
      {
       OFFSET -13.664500 0.000000 0.000000
       CHANNELS 3 Yrotation Xrotation Zrotation
       JOINT RightElbow
       {
        OFFSET 0.000000 -29.999200 0.000000
        CHANNELS 3 Yrotation Xrotation Zrotation
        JOINT RightWrist
        {
         OFFSET 0.000000 -24.253600 0.000000
         CHANNELS 3 Yrotation Xrotation Zrotation
         End Site
         {
          OFFSET 0.000000 -17.918900 0.000000
         }
        }
       }
      }
     }
     JOINT LeftCollar
     {
      OFFSET 2.920100 9.518800 0.000000
      CHANNELS 3 Yrotation Xrotation Zrotation
      JOINT LeftShoulder
      {
       OFFSET 13.664500 0.000000 0.000000
       CHANNELS 3 Yrotation Xrotation Zrotation
       JOINT LeftElbow
       {
        OFFSET 0.000000 -29.999200 0.000000
        CHANNELS 3 Yrotation Xrotation Zrotation
        JOINT LeftWrist
        {
         OFFSET 0.000000 -24.253600 0.000000
         CHANNELS 3 Yrotation Xrotation Zrotation
         End Site
         {
          OFFSET 0.000000 -17.918900 0.000000
         }
        }
       }
      }
     }
    }
   }
  }
 }
 JOINT RightHip
 {
  OFFSET -7.797300 0.005300 0.000500
  CHANNELS 3 Yrotation Xrotation Zrotation
  JOINT RightKnee
  {
   OFFSET 0.000000 -40.663400 -0.000500
   CHANNELS 3 Yrotation Xrotation Zrotation
   JOINT RightAnkle
   {
    OFFSET 0.000000 -39.523700 -0.000900
    CHANNELS 3 Yrotation Xrotation Zrotation
    JOINT RightToe
    {
     OFFSET 0.000000 -6.418000 14.485300
     CHANNELS 3 Yrotation Xrotation Zrotation
     End Site
     {
      OFFSET 0.000000 -1.465200 6.326400
     }
    }
   }
  }
 }
 JOINT LeftHip
 {
  OFFSET 7.797300 0.005300 0.000500
  CHANNELS 3 Yrotation Xrotation Zrotation
  JOINT LeftKnee
  {
   OFFSET 0.000000 -40.663400 -0.000500
   CHANNELS 3 Yrotation Xrotation Zrotation
   JOINT LeftAnkle
   {
    OFFSET 0.000000 -39.523700 -0.000900
    CHANNELS 3 Yrotation Xrotation Zrotation
    JOINT LeftToe
    {
     OFFSET 0.000000 -6.418000 14.485300
     CHANNELS 3 Yrotation Xrotation Zrotation
     End Site
     {
      OFFSET 0.000000 -1.465200 6.326400
     }
    }
   }
  }
 }
}
MOTION
Frames: 12
Frame Time: 0.008333
0.000000 86.422400 0.000000 0.000000 -5.767877 0.000000 0.000000 11.653817 0.000000 0.000000 -5.885947 0.000000 0.000000 -0.000000 0.000000 0.000000 -0.000000 0.000000 0.000000 12.528835 0.000000 0.000000 0.711642 0.000000 0.000000 -0.000000 0.000000 0.000000 0.000000 -90.000000 0.000000 -2.309062 0.000000 0.000000 2.309062 0.000000 0.000000 -0.000000 0.000000 0.000000 -0.000000 90.000000 0.000000 -2.309062 0.000000 0.000000 2.309062 0.000000 0.000000 8.520406 0.000000 0.000000 1.905762 0.000000 -0.000000 -4.658285 0.000000 0.000000 -0.000000 0.000000 0.000000 8.520406 0.000000 0.000000 1.905762 0.000000 -0.000000 -4.658285 0.000000 0.000000 -0.000000 0.000000
-23.234587 126.477601 59.050755 -175.239087 -29.112345 -2.158965 -4.139844 19.713228 -1.596921 -0.480308 2.467631 -0.117178 -0.791216 4.048210 -0.203221 -3.504102 16.973083 -1.264483 -3.847724 14.936060 0.853495 -4.266790 -9.981266 1.782767 -6.219919 -7.184517 -5.070292 11.042301 13.089576 -28.335958 163.100220 -84.555899 -105.561512 4.834426 -33.789761 -55.624386 -4.286727 -3.095148 2.342000 7.678945 -9.157006 8.825177 -118.662272 -72.560057 115.142396 -29.690314 -11.067820 39.564435 -6.594817 -58.732616 3.315984 -38.155136 68.219450 -35.500973 22.528930 38.878985 10.949569 -0.019892 -0.016154 -0.008811 -12.115832 -47.977384 -4.047012 15.669814 71.030270 6.997153 0.481040 8.107081 5.384387 -0.002636 -0.006449 -0.001168
-23.235817 126.474632 59.046509 -175.221213 -29.050928 -2.153909 -4.117843 19.771242 -1.586063 -0.478628 2.480379 -0.116377 -0.788308 4.068133 -0.201952 -3.482265 17.012797 -1.254757 -3.734477 14.852956 0.899304 -4.154482 -10.072063 1.804335 -6.232336 -7.252398 -5.061337 10.957333 13.209624 -28.280442 162.559873 -84.415764 -105.079027 4.868684 -33.802753 -55.618488 -4.281441 -3.154860 2.347667 7.643541 -8.924155 8.778246 -118.667384 -72.556050 114.958017 -29.514819 -11.270884 39.617879 -6.561815 -58.793102 3.312853 -38.117423 68.259266 -35.502645 22.525177 38.811325 10.982025 -0.014896 -0.010612 -0.006599 -12.125600 -48.039623 -4.047455 15.673344 71.033321 6.988207 0.481929 8.108289 5.394796 -0.004772 -0.005418 -0.002114
-23.237725 126.471613 59.040529 -175.196916 -28.985930 -2.146761 -4.100449 19.828284 -1.579270 -0.477339 2.493187 -0.115767 -0.786072 4.088091 -0.201035 -3.463624 17.052000 -1.246952 -3.630496 14.770465 0.939462 -4.051063 -10.161821 1.822024 -6.248376 -7.326155 -5.055359 10.888623 13.329363 -28.214976 162.184975 -84.282742 -104.768629 4.883963 -33.804441 -55.602775 -4.312547 -3.282626 2.370195 7.630608 -8.642435 8.733303 -118.638351 -72.588085 114.738143 -29.388965 -11.451204 39.685750 -6.542382 -58.854919 3.307854 -38.060993 68.300998 -35.493408 22.510770 38.751772 11.028605 -0.019303 -0.005285 -0.008552 -12.115451 -48.104323 -4.063788 15.626672 71.040092 6.938802 0.487513 8.106550 5.409059 -0.003243 -0.004411 -0.001437
-23.237626 126.467932 59.034200 -175.174865 -28.910341 -2.148523 -4.074109 19.876677 -1.560430 -0.476287 2.505857 -0.115213 -0.784231 4.107955 -0.200114 -3.446824 17.090568 -1.239680 -3.536125 14.685953 0.975823 -3.957319 -10.253187 1.837902 -6.267100 -7.406253 -5.047136 10.830691 13.448541 -28.146972 161.813891 -84.165313 -104.458734 4.897752 -33.807329 -55.593298 -4.283018 -3.321809 2.382370 7.554234 -8.476068 8.689521 -118.594582 -72.648289 114.494764 -29.329945 -11.606319 39.769760 -6.549109 -58.922447 3.333891 -38.069494 68.304851 -35.531276 22.584329 38.706940 11.051362 -0.006728 -0.011035 -0.002980 -12.117239 -48.179841 -4.063034 15.567535 71.051905 6.880281 0.492112 8.102337 5.420991 -0.003303 -0.003528 -0.001463
-23.237957 126.467474 59.020854 -175.155451 -28.874053 -2.147735 -4.043317 19.962980 -1.545173 -0.475147 2.517844 -0.114744 -0.782183 4.126772 -0.199173 -3.429793 17.127081 -1.232576 -3.451501 14.601574 1.009211 -3.873595 -10.343929 1.852992 -6.287300 -7.487516 -5.031575 10.775670 13.563923 -28.085853 161.604393 -84.017009 -104.332286 4.857474 -33.786444 -55.555777 -4.259124 -3.351928 2.397367 7.482351 -8.336291 8.649417 -118.557965 -72.711766 114.245816 -29.329687 -11.730219 39.857463 -6.562544 -58.949286 3.370900 -37.975580 68.350861 -35.518345 22.668501 38.622592 11.128933 -0.003465 -0.007714 -0.001535 -12.112623 -48.212368 -4.073329 15.511758 71.062720 6.822149 0.495166 8.091747 5.433071 -0.001708 -0.005024 -0.000757
-23.240011 126.462860 59.014143 -175.117745 -28.786475 -2.139829 -4.036254 19.994404 -1.542561 -0.473783 2.528168 -0.114309 -0.779758 4.142918 -0.198343 -3.412453 17.158714 -1.226013 -3.376298 14.525044 1.037081 -3.798865 -10.426096 1.864503 -6.306808 -7.559281 -5.011112 10.721446 13.669764 -28.032139 161.389244 -83.880409 -104.195861 4.823371 -33.764153 -55.524705 -4.261042 -3.394451 2.412895 7.440440 -8.188113 8.618106 -118.535786 -72.755284 114.003040 -29.361548 -11.830025 39.940202 -6.603043 -59.029908 3.410823 -37.874675 68.395696 -35.509572 22.693605 38.551777 11.203728 -0.006607 0.001501 -0.002928 -12.119625 -48.301127 -4.093895 15.442887 71.072708 6.752396 0.504715 8.081865 5.445198 -0.000899 -0.002760 -0.000398
-23.241572 126.457713 59.007782 -175.088734 -28.692138 -2.128295 -4.025994 20.014377 -1.540248 -0.472164 2.536426 -0.113865 -0.776891 4.155794 -0.197622 -3.394771 17.184425 -1.219920 -3.309483 14.461687 1.057845 -3.731576 -10.494161 1.870504 -6.321714 -7.615221 -4.990697 10.668658 13.763377 -27.982161 160.687830 -83.846299 -103.508383 4.921110 -33.805262 -55.582974 -4.262614 -3.418572 2.423394 7.401841 -8.051889 8.593685 -118.517449 -72.771967 113.767863 -29.399058 -11.928315 40.020480 -6.643668 -59.120225 3.446887 -37.811993 68.425682 -35.524637 22.758111 38.496483 11.274046 -0.008048 0.006357 -0.003566 -12.125874 -48.398654 -4.112340 15.389474 71.085163 6.698594 0.515050 8.071629 5.455037 -0.001072 -0.000795 -0.000475
-23.241417 126.452763 59.000646 -175.082832 -28.599684 -2.114596 -3.997881 20.031224 -1.532005 -0.470013 2.542872 -0.113565 -0.773256 4.165781 -0.197143 -3.375209 17.204975 -1.214866 -3.249113 14.410276 1.073842 -3.670152 -10.549442 1.872949 -6.332288 -7.656872 -4.969645 10.617832 13.850500 -27.935045 160.122162 -83.762682 -102.978386 4.957869 -33.822752 -55.610169 -4.262249 -3.431052 2.431974 7.354843 -7.912314 8.577190 -118.520723 -72.766895 113.571855 -29.430965 -12.035228 40.105702 -6.713839 -59.208293 3.533056 -37.803738 68.427732 -35.584742 22.743322 38.448298 11.310496 -0.006616 -0.006260 -0.002931 -12.119463 -48.494348 -4.123349 15.377712 71.095866 6.694358 0.513946 8.065451 5.456638 0.000451 -0.001701 0.000200
-23.240766 126.448218 58.992552 -175.082075 -28.511047 -2.101014 -3.969508 20.045895 -1.525018 -0.467429 2.547431 -0.113588 -0.769089 4.172911 -0.197134 -3.354698 17.220215 -1.212155 -3.192539 14.368839 1.087461 -3.612254 -10.594169 1.873758 -6.368432 -7.732290 -4.938018 10.606175 13.984181 -27.886466 159.882243 -83.634481 -102.816681 4.930752 -33.805398 -55.578854 -4.261050 -3.432290 2.438807 7.296281 -7.761867 8.566012 -118.562399 -72.738447 113.437549 -29.458518 -12.143887 40.203843 -6.814709 -59.294083 3.651008 -37.791868 68.427778 -35.655410 22.751055 38.421317 11.340918 -0.001948 -0.012881 -0.000863 -12.108313 -48.584108 -4.128518 15.334299 71.113545 6.650693 0.525196 8.050946 5.471071 -0.000944 -0.001390 -0.000418
-23.242972 126.444828 58.982327 -175.069936 -28.435956 -2.077053 -3.961853 20.067612 -1.538692 -0.480274 2.501598 -0.114207 -0.749207 4.225101 -0.198853 -3.335080 17.229356 -1.212337 -3.137252 14.335304 1.099489 -3.555429 -10.630637 1.873230 -6.356963 -7.725873 -4.919315 10.552875 14.056767 -27.843625 159.674875 -83.508129 -102.692509 4.937005 -33.808746 -55.578553 -4.260876 -3.419607 2.442229 7.226267 -7.605381 8.555185 -118.613632 -72.683499 113.338193 -29.483639 -12.250355 40.318770 -6.887419 -59.372112 3.716969 -37.695646 68.495404 -35.678442 22.759934 38.329915 11.422620 -0.016557 0.002579 -0.007336 -12.070226 -48.663226 -4.172726 15.283802 71.132774 6.612870 0.528207 8.037975 5.478987 0.000243 -0.003003 0.000108
-23.243557 126.440630 58.973715 -175.071797 -28.348664 -2.056381 -3.941979 20.073310 -1.543099 -0.490742 2.457420 -0.113885 -0.731766 4.271067 -0.201697 -3.316871 17.233228 -1.213632 -3.082289 14.305877 1.109484 -3.498572 -10.662728 1.870624 -6.343184 -7.709952 -4.904798 10.507243 14.130167 -27.799439 159.333530 -83.417460 -102.411365 4.988698 -33.833489 -55.608773 -4.262275 -3.399141 2.441512 7.143104 -7.446135 8.544043 -118.655732 -72.608280 113.253861 -29.502945 -12.355878 40.447921 -6.964747 -59.463301 3.795979 -37.640576 68.527429 -35.700136 22.765049 38.296729 11.454610 -0.020832 0.003494 -0.009231 -12.065487 -48.753680 -4.175951 15.294459 71.152982 6.613668 0.526692 8.019871 5.490781 -0.000668 -0.002398 -0.000296
